<?xml version="1.0" standalone="no"?>
<svg xmlns="http://www.w3.org/2000/svg">
<symbol id="Alarm">
<path d="M511.15 65C264.87 65 65.21 264.68 65.21 511s199.66 446 445.94 446 446-199.66 446-445.95S757.44 65 511.15 65z m157 282.71l43.15-24.91a13 13 0 1 1 13 22.54l-43.17 24.93a13 13 0 0 1-13-22.54z m4.08 116.45v202.26H348V464.18a162.11 162.11 0 0 1 162.09-162.11A162.11 162.11 0 0 1 672.2 464.18z m-79.81-181.61l24.93-43.18a13 13 0 0 1 22.55 13L615 295.56a13 13 0 1 1-22.55-13z m-95.7-68.11a13 13 0 0 1 26 0v49.85a13 13 0 1 1-26 0z m-112 20.17a13 13 0 0 1 17.79 4.76l24.92 43.18a13 13 0 0 1-22.55 13L380 252.39a13 13 0 0 1 4.77-17.78z m-95.18 86.24a13 13 0 0 1 17.78-4.76L350.54 341a13 13 0 1 1-13 22.55l-43.16-24.93a13 13 0 0 1-4.79-17.77z m446 391.53a50.21 50.21 0 0 1-50.2 50.2H334.73a50.2 50.2 0 0 1-50.2-50.2v-22.77h451.06z" fill="#d81e06"></path>
</symbol>
</svg>